<svg xmlns="http://www.w3.org/2000/svg" viewBox="0 0 640 400">
<defs><linearGradient id="c" x1="0" y1="0" x2="0" y2="1"><stop offset="0" stop-color="#bfe0f5"/><stop offset="1" stop-color="#ffffff"/></linearGradient></defs>
<rect width="640" height="400" fill="url(#c)"/>
<circle cx="540" cy="70" r="34" fill="#ffe082"/>
<path d="M0 190 Q160 150 320 185 T640 175 V400 H0Z" fill="#8fbf6a" opacity=".6"/>
<rect y="240" width="640" height="160" fill="#8a6a3f"/>
<g transform="translate(20,250)"><ellipse cx="0" cy="40" rx="12" ry="36" fill="#f2c14e"/><path d="M-12 50 q-10 -30 4 -60 M12 50 q10 -30 -4 -60" stroke="#6ab04c" stroke-width="7" fill="none"/></g><g transform="translate(96,250)"><ellipse cx="0" cy="40" rx="12" ry="36" fill="#f2c14e"/><path d="M-12 50 q-10 -30 4 -60 M12 50 q10 -30 -4 -60" stroke="#6ab04c" stroke-width="7" fill="none"/></g><g transform="translate(172,250)"><ellipse cx="0" cy="40" rx="12" ry="36" fill="#f2c14e"/><path d="M-12 50 q-10 -30 4 -60 M12 50 q10 -30 -4 -60" stroke="#6ab04c" stroke-width="7" fill="none"/></g><g transform="translate(248,250)"><ellipse cx="0" cy="40" rx="12" ry="36" fill="#f2c14e"/><path d="M-12 50 q-10 -30 4 -60 M12 50 q10 -30 -4 -60" stroke="#6ab04c" stroke-width="7" fill="none"/></g><g transform="translate(324,250)"><ellipse cx="0" cy="40" rx="12" ry="36" fill="#f2c14e"/><path d="M-12 50 q-10 -30 4 -60 M12 50 q10 -30 -4 -60" stroke="#6ab04c" stroke-width="7" fill="none"/></g><g transform="translate(400,250)"><ellipse cx="0" cy="40" rx="12" ry="36" fill="#f2c14e"/><path d="M-12 50 q-10 -30 4 -60 M12 50 q10 -30 -4 -60" stroke="#6ab04c" stroke-width="7" fill="none"/></g><g transform="translate(476,250)"><ellipse cx="0" cy="40" rx="12" ry="36" fill="#f2c14e"/><path d="M-12 50 q-10 -30 4 -60 M12 50 q10 -30 -4 -60" stroke="#6ab04c" stroke-width="7" fill="none"/></g><g transform="translate(552,250)"><ellipse cx="0" cy="40" rx="12" ry="36" fill="#f2c14e"/><path d="M-12 50 q-10 -30 4 -60 M12 50 q10 -30 -4 -60" stroke="#6ab04c" stroke-width="7" fill="none"/></g><g transform="translate(628,250)"><ellipse cx="0" cy="40" rx="12" ry="36" fill="#f2c14e"/><path d="M-12 50 q-10 -30 4 -60 M12 50 q10 -30 -4 -60" stroke="#6ab04c" stroke-width="7" fill="none"/></g>
<rect x="16" y="352" width="190" height="32" rx="16" fill="#000" opacity=".45"/>
<text x="111" y="373" text-anchor="middle" font-family="system-ui,sans-serif" font-size="15" fill="#fff">Imagen de ejemplo · Mazorca</text>
</svg>